<svg width="148" height="304" viewBox="0 0 148 304" fill="none" xmlns="http://www.w3.org/2000/svg">
<rect width="148" height="304" fill="#F5F5F5"/>
<path d="M143.691 102.237L77.1986 301.991L10.8555 102.187L143.691 102.237Z" stroke="black"/>
<ellipse cx="107.5" cy="90" rx="40.5" ry="38" fill="url(#paint0_angular_0_1)"/>
<ellipse cx="40.5" cy="90" rx="40.5" ry="38" fill="url(#paint1_linear_0_1)"/>
<ellipse cx="76.5" cy="38" rx="40.5" ry="38" fill="url(#paint2_radial_0_1)"/>
<line x1="71.4582" y1="116.2" x2="40.4582" y2="187.2" stroke="black"/>
<line x1="25.1866" y1="137.536" x2="117.187" y2="174.536" stroke="black"/>
<line x1="61.2011" y1="127.542" x2="127.201" y2="156.542" stroke="black"/>
<line x1="25.2171" y1="156.55" x2="108.217" y2="196.55" stroke="black"/>
<line x1="40.2016" y1="196.542" x2="99.2016" y2="222.542" stroke="black"/>
<line x1="53.2102" y1="222.546" x2="94.2102" y2="241.546" stroke="black"/>
<line x1="61.1636" y1="255.528" x2="87.1636" y2="264.527" stroke="black"/>
<line x1="117.458" y1="128.2" x2="61.4581" y2="256.2" stroke="black"/>
<line x1="99.4323" y1="233.251" x2="74.4323" y2="276.251" stroke="black"/>
<line x1="94.4591" y1="128.198" x2="53.4591" y2="223.198" stroke="black"/>
<line x1="53.3917" y1="128.311" x2="30.3917" y2="157.311" stroke="black"/>
<defs>
<radialGradient id="paint0_angular_0_1" cx="0" cy="0" r="1" gradientUnits="userSpaceOnUse" gradientTransform="translate(107.5 90) rotate(90) scale(38 40.5)">
<stop offset="0.192708" stop-color="#C53030" stop-opacity="0.72"/>
<stop offset="0.489583" stop-color="#C53030"/>
<stop offset="0.822917" stop-color="#C53030" stop-opacity="0"/>
</radialGradient>
<linearGradient id="paint1_linear_0_1" x1="40.5" y1="52" x2="40.5" y2="128" gradientUnits="userSpaceOnUse">
<stop offset="0.244792" stop-color="#21B375"/>
<stop offset="1" stop-color="#21B375" stop-opacity="0"/>
</linearGradient>
<radialGradient id="paint2_radial_0_1" cx="0" cy="0" r="1" gradientUnits="userSpaceOnUse" gradientTransform="translate(76.5 38) rotate(90) scale(38 40.5)">
<stop stop-color="#D9D9D9" stop-opacity="0"/>
<stop offset="0.640625" stop-color="#BB5B5B"/>
</radialGradient>
</defs>
</svg>
