<svg width="148" height="303" viewBox="0 0 148 303" fill="none" xmlns="http://www.w3.org/2000/svg">
<rect width="148" height="303" fill="#F5F5F5"/>
<path d="M77.198 302.576L10.1626 100.687L144.385 100.737L77.198 302.576Z" fill="#B59032"/>
<ellipse cx="107.5" cy="89" rx="40.5" ry="38" fill="#C53030"/>
<ellipse cx="40.5" cy="89" rx="40.5" ry="38" fill="#21B375"/>
<ellipse cx="76.5" cy="38" rx="40.5" ry="38" fill="#ED99EA"/>
<line x1="25.1866" y1="136.536" x2="117.187" y2="173.536" stroke="black"/>
<line x1="61.2011" y1="126.542" x2="127.201" y2="155.542" stroke="black"/>
<line x1="25.2171" y1="155.55" x2="108.217" y2="195.55" stroke="black"/>
<line x1="40.2016" y1="195.542" x2="99.2016" y2="221.542" stroke="black"/>
<line x1="53.2102" y1="221.546" x2="94.2102" y2="240.546" stroke="black"/>
<line x1="61.1636" y1="254.528" x2="87.1636" y2="263.527" stroke="black"/>
<line x1="117.458" y1="127.2" x2="61.4581" y2="255.2" stroke="black"/>
<line x1="99.4323" y1="232.251" x2="74.4323" y2="275.251" stroke="black"/>
<line x1="94.4591" y1="127.198" x2="53.4591" y2="222.198" stroke="black"/>
<line x1="71.4582" y1="115.2" x2="40.4582" y2="186.2" stroke="black"/>
<line x1="53.3917" y1="127.311" x2="30.3917" y2="156.311" stroke="black"/>
</svg>
